<svg width="116" height="34" viewBox="0 0 116 34" fill="none" xmlns="http://www.w3.org/2000/svg">
<path d="M36.7871 28.7013H40.1359V22.8303H46.0492V28.7013H49.4192V13.8649H46.0492V19.6087H40.1359V13.8649H36.7871V28.7013ZM57.6512 28.9768C61.2543 28.9768 63.6917 26.4123 63.6917 23.1059C63.6917 19.7995 61.2543 17.2349 57.6724 17.2349C54.0481 17.2349 51.6319 19.7995 51.6319 23.1059C51.6319 26.4123 54.0693 28.9768 57.6512 28.9768ZM57.6512 26.0096C56.104 26.0096 54.9594 24.8226 54.9594 23.1059C54.9594 21.4103 56.104 20.2022 57.6512 20.2022C59.2196 20.2022 60.3641 21.4103 60.3641 23.1059C60.3641 24.8014 59.2196 26.0096 57.6512 26.0096ZM65.8456 28.7013H69.1308V22.4064C69.1308 21.1983 69.8514 20.287 70.9324 20.287C72.0557 20.287 72.6704 21.0924 72.6704 22.2369V28.7013H75.9555V22.4276C75.9555 21.1771 76.6762 20.287 77.7571 20.287C78.9016 20.287 79.4527 21.0924 79.4527 22.3217V28.7013H82.7379V21.1771C82.7379 18.8457 81.1059 17.2349 78.6685 17.2349C77.2696 17.2349 76.2099 17.7224 75.4257 18.7609H75.2773C74.5991 17.8072 73.497 17.2349 72.0345 17.2349C70.5509 17.2349 69.5759 17.9767 69.1096 18.7185H68.9401V17.5104H65.8456V28.7013ZM90.2219 28.9768C93.2527 28.9768 95.2874 27.472 95.7961 25.1194H92.8288C92.5109 25.8188 91.6419 26.4546 90.349 26.4546C88.8018 26.4546 87.7633 25.4373 87.6573 24.0172H95.9021V23.0635C95.9021 19.9478 93.9733 17.2349 90.2854 17.2349C86.8731 17.2349 84.5417 19.6723 84.5417 23.1694C84.5417 26.5394 86.9791 28.9768 90.2219 28.9768ZM87.7209 21.8342C87.8692 20.732 88.8866 19.7359 90.2854 19.7359C91.7479 19.7359 92.7228 20.6473 92.85 21.8342H87.7209ZM101.384 28.7013H102.507V25.8188H102.104C101.511 25.8188 101.172 25.4797 101.172 24.8014V12.8052H97.8864V25.183C97.8864 27.366 99.1369 28.7013 101.384 28.7013ZM104.286 33.5761H105.77C108.123 33.5761 109.394 32.368 110.157 30.3121L114.905 17.5104H111.429L109.098 24.6107H108.928L106.469 17.5104H103.036L107.466 28.9132L107.275 29.4431C106.978 30.1849 106.469 30.6724 105.579 30.6724H104.286V33.5761Z" fill="#171717"/>
<path d="M0 12.3636C0 11.2517 0.52349 10.2048 1.41299 9.53766L12.0104 1.58961C13.2664 0.64762 14.9934 0.64762 16.2494 1.58961L26.8468 9.53766C27.7362 10.2048 28.2597 11.2517 28.2597 12.3636V28.2597C28.2597 30.2107 26.6782 31.7922 24.7273 31.7922H3.53247C1.58154 31.7922 0 30.2107 0 28.2597V12.3636Z" fill="#FF6C2F"/>
</svg>
